<svg width="606mm" height="403mm" viewBox="0 0 606 403" xmlns="http://www.w3.org/2000/svg" version="1.1" preserveAspectRatio="xMidYMid meet"><g id="svgGroup" stroke-linecap="round" fill-rule="evenodd" font-size="9pt" stroke="#000" stroke-width="0.25mm" fill="none" style="stroke:#000;stroke-width:0.25mm;fill:none"><path d="M 0 303 L 0 336.5 L 3 336.5 L 3 369.5 L 0 369.5 L 0 403 L 50.5 403 L 50.5 400 L 83.5 400 L 83.5 403 L 116.5 403 L 116.5 400 L 149.5 400 L 149.5 403 L 182.5 403 L 200 403 L 200 369.5 L 197 369.5 L 197 336.5 L 200 336.5 L 200 303 L 149.5 303 L 149.5 306 L 116.5 306 L 116.5 303 L 83.5 303 L 83.5 306 L 50.5 306 L 50.5 303 L 17.5 303 L 0 303 Z" id="front_outsideCutPath" stroke="#FF0000" stroke-width="0.1" style="stroke:#FF0000;stroke-width:0.1" vector-effect="non-scaling-stroke"/><path d="M 114.575 360.553 L 112.954 360.553 L 112.954 353.63 Q 112.954 352.796 112.712 352.231 A 1.928 1.928 0 0 0 112.358 351.677 A 1.828 1.828 0 0 0 111.609 351.198 Q 111.314 351.094 110.952 351.055 A 4.298 4.298 0 0 0 110.493 351.032 Q 109.387 351.032 108.67 351.426 A 2.286 2.286 0 0 0 108.032 351.94 A 2.65 2.65 0 0 0 107.572 352.746 Q 107.294 353.484 107.257 354.586 A 10.385 10.385 0 0 0 107.251 354.938 L 107.251 360.553 L 105.63 360.553 L 105.63 349.85 L 106.948 349.85 L 107.212 351.315 L 107.29 351.315 A 3.283 3.283 0 0 1 108.576 350.145 A 3.947 3.947 0 0 1 108.687 350.09 A 4.39 4.39 0 0 1 110.249 349.673 A 5.308 5.308 0 0 1 110.688 349.655 Q 111.971 349.655 112.832 350.065 A 2.913 2.913 0 0 1 113.599 350.588 Q 114.575 351.52 114.575 353.571 L 114.575 360.553 Z M 83.433 349.85 L 83.433 351.11 L 80.708 351.11 L 80.708 360.553 L 79.087 360.553 L 79.087 351.11 L 77.173 351.11 L 77.173 350.378 L 79.087 349.792 L 79.087 349.196 Q 79.087 345.79 81.656 345.325 A 4.927 4.927 0 0 1 82.534 345.251 Q 83.195 345.251 84.032 345.457 A 10.494 10.494 0 0 1 84.526 345.593 L 84.106 346.891 A 7.872 7.872 0 0 0 83.494 346.719 Q 82.941 346.589 82.505 346.589 A 2.186 2.186 0 0 0 81.978 346.648 A 1.404 1.404 0 0 0 81.147 347.199 A 1.876 1.876 0 0 0 80.9 347.699 Q 80.735 348.187 80.712 348.913 A 7.654 7.654 0 0 0 80.708 349.157 L 80.708 349.85 L 83.433 349.85 Z M 122.827 359.216 L 122.827 360.456 A 1.595 1.595 0 0 1 122.638 360.531 Q 122.436 360.598 122.148 360.649 A 6.063 6.063 0 0 1 122.051 360.666 Q 121.572 360.743 121.183 360.748 A 4.156 4.156 0 0 1 121.128 360.749 A 4.234 4.234 0 0 1 119.88 360.581 Q 118.509 360.158 118.15 358.668 A 5.096 5.096 0 0 1 118.022 357.477 L 118.022 351.11 L 116.489 351.11 L 116.489 350.329 L 118.022 349.655 L 118.706 347.37 L 119.644 347.37 L 119.644 349.85 L 122.749 349.85 L 122.749 351.11 L 119.644 351.11 L 119.644 357.409 A 3.264 3.264 0 0 0 119.691 357.982 Q 119.747 358.297 119.87 358.546 A 1.572 1.572 0 0 0 120.103 358.893 A 1.506 1.506 0 0 0 121.028 359.386 A 2.167 2.167 0 0 0 121.362 359.411 A 5.324 5.324 0 0 0 122.142 359.355 A 4.914 4.914 0 0 0 122.192 359.347 A 8.77 8.77 0 0 0 122.426 359.307 Q 122.65 359.266 122.805 359.222 A 2.43 2.43 0 0 0 122.827 359.216 Z M 91.548 349.772 L 91.323 351.276 A 7.145 7.145 0 0 0 90.809 351.181 Q 90.553 351.144 90.325 351.134 A 3.802 3.802 0 0 0 90.151 351.13 A 2.809 2.809 0 0 0 88.076 352.026 A 3.843 3.843 0 0 0 87.93 352.184 A 3.702 3.702 0 0 0 87.037 354.263 A 4.921 4.921 0 0 0 87.007 354.811 L 87.007 360.553 L 85.386 360.553 L 85.386 349.85 L 86.724 349.85 L 86.909 351.833 L 86.987 351.833 A 5.474 5.474 0 0 1 87.599 350.958 A 4.182 4.182 0 0 1 88.423 350.221 Q 89.263 349.655 90.269 349.655 A 7.442 7.442 0 0 1 90.935 349.683 A 5.432 5.432 0 0 1 91.548 349.772 Z M 102.639 356.821 A 8.374 8.374 0 0 0 102.788 355.192 A 9.514 9.514 0 0 0 102.785 354.935 Q 102.721 352.567 101.465 351.149 A 4.244 4.244 0 0 0 99.495 349.879 A 5.447 5.447 0 0 0 97.896 349.655 A 6.296 6.296 0 0 0 96.765 349.752 A 4.288 4.288 0 0 0 94.263 351.115 Q 93.394 352.085 93.102 353.564 A 8.417 8.417 0 0 0 92.954 355.192 A 8.11 8.11 0 0 0 93.056 356.506 A 5.997 5.997 0 0 0 93.56 358.141 A 5.328 5.328 0 0 0 93.678 358.372 A 4.389 4.389 0 0 0 95.278 360.075 A 4.514 4.514 0 0 0 96.314 360.536 A 5.206 5.206 0 0 0 97.827 360.749 A 6.295 6.295 0 0 0 98.926 360.657 A 4.322 4.322 0 0 0 101.47 359.279 Q 102.345 358.303 102.639 356.821 Z M 94.634 355.192 Q 94.634 357.243 95.454 358.317 A 2.657 2.657 0 0 0 97.185 359.336 A 4.026 4.026 0 0 0 97.866 359.391 A 3.765 3.765 0 0 0 98.86 359.268 A 2.62 2.62 0 0 0 100.283 358.322 Q 101.108 357.253 101.108 355.192 Q 101.108 353.883 100.769 352.977 A 3.338 3.338 0 0 0 100.283 352.092 A 2.667 2.667 0 0 0 98.625 351.102 A 4.089 4.089 0 0 0 97.847 351.032 A 3.858 3.858 0 0 0 96.886 351.145 A 2.582 2.582 0 0 0 95.444 352.077 Q 94.861 352.829 94.697 354.113 A 8.566 8.566 0 0 0 94.634 355.192 Z" id="front_labelLayer" stroke="#777777" fill="#777777" style="stroke:#777777;fill:#777777" vector-effect="non-scaling-stroke"/><path d="M 206 303 L 206 336.5 L 203 336.5 L 203 369.5 L 206 369.5 L 206 403 L 253.5 403 L 253.5 400 L 286.5 400 L 286.5 403 L 319.5 403 L 319.5 400 L 352.5 400 L 352.5 403 L 385.5 403 L 400 403 L 400 369.5 L 403 369.5 L 403 336.5 L 400 336.5 L 400 303 L 352.5 303 L 352.5 306 L 319.5 306 L 319.5 303 L 286.5 303 L 286.5 306 L 253.5 306 L 253.5 303 L 220.5 303 L 206 303 Z" id="left_outsideCutPath" stroke="#FF0000" stroke-width="0.1" style="stroke:#FF0000;stroke-width:0.1" vector-effect="non-scaling-stroke"/><path d="M 310.114 349.85 L 310.114 351.11 L 307.39 351.11 L 307.39 360.553 L 305.769 360.553 L 305.769 351.11 L 303.854 351.11 L 303.854 350.378 L 305.769 349.792 L 305.769 349.196 Q 305.769 345.79 308.338 345.325 A 4.927 4.927 0 0 1 309.216 345.251 Q 309.876 345.251 310.714 345.457 A 10.494 10.494 0 0 1 311.208 345.593 L 310.788 346.891 A 7.872 7.872 0 0 0 310.176 346.719 Q 309.622 346.589 309.187 346.589 A 2.186 2.186 0 0 0 308.66 346.648 A 1.404 1.404 0 0 0 307.829 347.199 A 1.876 1.876 0 0 0 307.581 347.699 Q 307.417 348.187 307.393 348.913 A 7.654 7.654 0 0 0 307.39 349.157 L 307.39 349.85 L 310.114 349.85 Z M 302.526 354.47 L 302.526 355.495 L 295.153 355.495 A 6.506 6.506 0 0 0 295.267 356.584 Q 295.384 357.178 295.619 357.646 A 3.044 3.044 0 0 0 296.105 358.356 A 2.946 2.946 0 0 0 297.652 359.228 A 4.463 4.463 0 0 0 298.649 359.333 A 8.562 8.562 0 0 0 301.856 358.698 A 9.811 9.811 0 0 0 302.067 358.61 L 302.067 360.055 A 9.732 9.732 0 0 1 301.18 360.39 A 7.442 7.442 0 0 1 300.441 360.588 Q 299.845 360.713 299.058 360.741 A 13.207 13.207 0 0 1 298.591 360.749 A 6.299 6.299 0 0 1 297.014 360.562 A 4.461 4.461 0 0 1 294.846 359.303 Q 293.474 357.858 293.474 355.29 A 8.512 8.512 0 0 1 293.631 353.602 Q 293.839 352.576 294.32 351.778 A 4.8 4.8 0 0 1 294.748 351.178 A 4.154 4.154 0 0 1 297.776 349.668 A 5.731 5.731 0 0 1 298.171 349.655 A 4.939 4.939 0 0 1 299.562 349.841 A 3.758 3.758 0 0 1 301.354 350.978 A 4.533 4.533 0 0 1 302.382 353.05 A 6.598 6.598 0 0 1 302.526 354.47 Z M 316.989 359.216 L 316.989 360.456 A 1.595 1.595 0 0 1 316.8 360.531 Q 316.598 360.598 316.31 360.649 A 6.063 6.063 0 0 1 316.213 360.666 Q 315.734 360.743 315.345 360.748 A 4.156 4.156 0 0 1 315.29 360.749 A 4.234 4.234 0 0 1 314.042 360.581 Q 312.671 360.158 312.312 358.668 A 5.096 5.096 0 0 1 312.185 357.477 L 312.185 351.11 L 310.651 351.11 L 310.651 350.329 L 312.185 349.655 L 312.868 347.37 L 313.806 347.37 L 313.806 349.85 L 316.911 349.85 L 316.911 351.11 L 313.806 351.11 L 313.806 357.409 A 3.264 3.264 0 0 0 313.853 357.982 Q 313.909 358.297 314.032 358.546 A 1.572 1.572 0 0 0 314.265 358.893 A 1.506 1.506 0 0 0 315.19 359.386 A 2.167 2.167 0 0 0 315.524 359.411 A 5.324 5.324 0 0 0 316.304 359.355 A 4.914 4.914 0 0 0 316.354 359.347 A 8.77 8.77 0 0 0 316.589 359.307 Q 316.812 359.266 316.968 359.222 A 2.43 2.43 0 0 0 316.989 359.216 Z M 290.632 345.358 L 290.632 360.553 L 289.011 360.553 L 289.011 345.358 L 290.632 345.358 Z M 295.192 354.177 L 300.788 354.177 A 5.524 5.524 0 0 0 300.721 353.288 Q 300.574 352.389 300.104 351.828 A 2.221 2.221 0 0 0 298.767 351.067 A 3.332 3.332 0 0 0 298.151 351.012 A 3.196 3.196 0 0 0 297.228 351.139 A 2.469 2.469 0 0 0 296.096 351.852 Q 295.402 352.612 295.224 353.9 A 6.124 6.124 0 0 0 295.192 354.177 Z" id="left_labelLayer" stroke="#777777" fill="#777777" style="stroke:#777777;fill:#777777" vector-effect="non-scaling-stroke"/><path d="M 409 206 L 409 253.5 L 406 253.5 L 406 286.5 L 409 286.5 L 409 319.5 L 406 319.5 L 406 352.5 L 409 352.5 L 409 385.5 L 409 400 L 456.5 400 L 456.5 403 L 489.5 403 L 489.5 400 L 522.5 400 L 522.5 403 L 555.5 403 L 555.5 400 L 588.5 400 L 603 400 L 603 352.5 L 606 352.5 L 606 319.5 L 603 319.5 L 603 286.5 L 606 286.5 L 606 253.5 L 603 253.5 L 603 220.5 L 603 206 L 555.5 206 L 555.5 203 L 522.5 203 L 522.5 206 L 489.5 206 L 489.5 203 L 456.5 203 L 456.5 206 L 423.5 206 L 409 206 Z" id="top_outsideCutPath" stroke="#FF0000" stroke-width="0.1" style="stroke:#FF0000;stroke-width:0.1" vector-effect="non-scaling-stroke"/><path d="M 520.375 308.625 L 520.14 308.625 A 30.683 30.683 0 0 1 520.342 310.892 A 25.711 25.711 0 0 1 520.375 312.18 L 520.375 320.988 L 517.133 320.988 L 517.133 289.973 L 519.769 289.973 L 520.219 292.902 L 520.375 292.902 Q 521.625 291.145 523.285 290.363 A 8.119 8.119 0 0 1 525.612 289.683 A 10.509 10.509 0 0 1 527.094 289.582 A 9.938 9.938 0 0 1 529.901 289.957 A 7.346 7.346 0 0 1 533.666 292.492 Q 535.98 295.402 535.98 300.656 A 19.01 19.01 0 0 1 535.728 303.855 Q 535.21 306.885 533.627 308.85 A 7.675 7.675 0 0 1 528.172 311.718 A 10.996 10.996 0 0 1 527.094 311.77 Q 525.004 311.77 523.275 310.998 A 7.181 7.181 0 0 1 520.375 308.625 Z M 488.695 308.703 L 488.695 311.184 A 3.189 3.189 0 0 1 488.317 311.334 Q 487.847 311.489 487.142 311.604 Q 486.185 311.759 485.407 311.769 A 8.312 8.312 0 0 1 485.297 311.77 A 8.468 8.468 0 0 1 482.801 311.434 Q 480.058 310.587 479.34 307.607 A 10.191 10.191 0 0 1 479.086 305.227 L 479.086 292.492 L 476.019 292.492 L 476.019 290.93 L 479.086 289.582 L 480.453 285.012 L 482.328 285.012 L 482.328 289.973 L 488.539 289.973 L 488.539 292.492 L 482.328 292.492 L 482.328 305.09 A 6.529 6.529 0 0 0 482.422 306.236 Q 482.535 306.866 482.781 307.364 A 3.145 3.145 0 0 0 483.246 308.059 Q 484.164 309.094 485.765 309.094 A 10.648 10.648 0 0 0 487.325 308.982 A 9.812 9.812 0 0 0 487.426 308.967 Q 488.19 308.846 488.652 308.716 A 4.868 4.868 0 0 0 488.695 308.703 Z M 511.151 303.914 A 16.747 16.747 0 0 0 511.449 300.656 A 19.028 19.028 0 0 0 511.442 300.142 Q 511.394 298.359 511.008 296.846 A 10.096 10.096 0 0 0 508.803 292.57 Q 506.156 289.582 501.664 289.582 Q 497.015 289.582 494.398 292.502 Q 492.66 294.441 492.076 297.401 A 16.834 16.834 0 0 0 491.781 300.656 A 16.219 16.219 0 0 0 491.985 303.283 A 11.994 11.994 0 0 0 492.992 306.555 A 10.656 10.656 0 0 0 493.228 307.017 A 8.777 8.777 0 0 0 496.43 310.422 A 9.028 9.028 0 0 0 498.502 311.343 A 10.412 10.412 0 0 0 501.527 311.77 A 12.59 12.59 0 0 0 503.726 311.586 A 8.644 8.644 0 0 0 508.812 308.83 A 9.044 9.044 0 0 0 509.889 307.351 Q 510.768 305.848 511.151 303.914 Z M 495.14 300.656 A 16.418 16.418 0 0 0 495.297 303.002 Q 495.469 304.192 495.831 305.157 A 6.802 6.802 0 0 0 496.781 306.906 A 5.314 5.314 0 0 0 500.242 308.944 A 8.052 8.052 0 0 0 501.605 309.055 A 7.531 7.531 0 0 0 503.592 308.808 A 5.241 5.241 0 0 0 506.439 306.916 A 6.96 6.96 0 0 0 507.523 304.805 Q 507.842 303.83 507.981 302.639 A 17.078 17.078 0 0 0 508.09 300.656 A 16.177 16.177 0 0 0 507.936 298.351 Q 507.587 295.929 506.439 294.455 Q 504.789 292.336 501.566 292.336 A 7.716 7.716 0 0 0 499.645 292.561 A 5.164 5.164 0 0 0 496.762 294.426 Q 495.14 296.516 495.14 300.656 Z M 520.375 299.934 L 520.375 300.656 Q 520.375 304.488 521.46 306.468 A 4.89 4.89 0 0 0 521.879 307.111 A 4.704 4.704 0 0 0 524.265 308.722 Q 525.328 309.055 526.703 309.055 A 5.463 5.463 0 0 0 528.827 308.656 Q 530.052 308.145 530.926 306.978 A 6.461 6.461 0 0 0 531.049 306.809 A 7.839 7.839 0 0 0 532.123 304.518 Q 532.434 303.467 532.551 302.206 A 17.273 17.273 0 0 0 532.621 300.617 Q 532.621 297.99 531.944 296.165 A 6.874 6.874 0 0 0 531.049 294.475 A 5.043 5.043 0 0 0 527.36 292.374 A 6.976 6.976 0 0 0 526.625 292.336 A 9.342 9.342 0 0 0 524.88 292.488 Q 523.908 292.673 523.161 293.084 A 4.284 4.284 0 0 0 521.879 294.152 Q 520.507 295.853 520.386 299.436 A 20.635 20.635 0 0 0 520.375 299.934 Z" id="top_labelLayer" stroke="#777777" fill="#777777" style="stroke:#777777;fill:#777777" vector-effect="non-scaling-stroke"/><path d="M 0 200 L 0 233.5 L 3 233.5 L 3 266.5 L 0 266.5 L 0 300 L 50.5 300 L 50.5 297 L 83.5 297 L 83.5 300 L 116.5 300 L 116.5 297 L 149.5 297 L 149.5 300 L 182.5 300 L 200 300 L 200 266.5 L 197 266.5 L 197 233.5 L 200 233.5 L 200 200 L 149.5 200 L 149.5 203 L 116.5 203 L 116.5 200 L 83.5 200 L 83.5 203 L 50.5 203 L 50.5 200 L 17.5 200 L 0 200 Z" id="back_outsideCutPath" stroke="#FF0000" stroke-width="0.1" style="stroke:#FF0000;stroke-width:0.1" vector-effect="non-scaling-stroke"/><path d="M 113.691 252.021 L 113.77 252.021 Q 114.189 251.426 115.049 250.459 L 118.506 246.797 L 120.43 246.797 L 116.094 251.357 L 120.732 257.5 L 118.77 257.5 L 114.99 252.441 L 113.77 253.496 L 113.77 257.5 L 112.168 257.5 L 112.168 242.305 L 113.77 242.305 L 113.77 250.361 A 10.803 10.803 0 0 1 113.765 250.666 Q 113.75 251.179 113.691 252.021 Z M 80.889 256.123 L 80.771 256.123 L 80.43 257.5 L 79.268 257.5 L 79.268 242.305 L 80.889 242.305 L 80.889 245.996 Q 80.889 247.196 80.816 248.159 A 20.218 20.218 0 0 1 80.811 248.223 L 80.889 248.223 A 3.686 3.686 0 0 1 83.579 246.66 A 5.537 5.537 0 0 1 84.248 246.621 A 4.955 4.955 0 0 1 85.642 246.807 A 3.709 3.709 0 0 1 87.524 248.061 A 4.777 4.777 0 0 1 88.362 249.675 Q 88.568 250.339 88.645 251.135 A 10.405 10.405 0 0 1 88.691 252.139 Q 88.691 254.775 87.515 256.235 A 3.838 3.838 0 0 1 84.787 257.669 A 5.498 5.498 0 0 1 84.248 257.695 A 4.917 4.917 0 0 1 83.012 257.545 A 4.278 4.278 0 0 1 82.339 257.309 Q 81.475 256.924 80.889 256.123 Z M 99.307 257.5 L 98.105 257.5 L 97.783 255.976 L 97.705 255.976 A 6.72 6.72 0 0 1 97.161 256.585 Q 96.869 256.873 96.577 257.073 A 2.987 2.987 0 0 1 96.108 257.339 Q 95.313 257.695 94.121 257.695 A 4.975 4.975 0 0 1 93.109 257.598 Q 92.219 257.413 91.626 256.875 A 2.665 2.665 0 0 1 90.822 255.47 A 4.079 4.079 0 0 1 90.723 254.541 Q 90.723 251.403 95.579 251.156 A 15.834 15.834 0 0 1 95.908 251.142 L 97.725 251.084 L 97.725 250.42 A 4.656 4.656 0 0 0 97.679 249.747 Q 97.629 249.402 97.522 249.126 A 1.809 1.809 0 0 0 97.183 248.559 A 1.646 1.646 0 0 0 96.509 248.12 Q 96.239 248.022 95.904 247.983 A 4.005 4.005 0 0 0 95.449 247.959 Q 94.374 247.959 93.071 248.489 A 10.857 10.857 0 0 0 92.422 248.779 L 91.924 247.539 A 7.474 7.474 0 0 1 93.366 246.946 A 8.508 8.508 0 0 1 93.657 246.865 A 7.507 7.507 0 0 1 95.547 246.621 A 6.847 6.847 0 0 1 96.59 246.695 Q 97.733 246.872 98.384 247.471 Q 99.107 248.137 99.264 249.434 A 6.379 6.379 0 0 1 99.307 250.195 L 99.307 257.5 Z M 109.785 247.158 L 109.287 248.535 A 7.212 7.212 0 0 0 108.505 248.275 A 8.613 8.613 0 0 0 108.115 248.179 Q 107.572 248.057 107.136 248.04 A 3.593 3.593 0 0 0 106.992 248.037 Q 103.73 248.037 103.73 252.197 A 7.851 7.851 0 0 0 103.808 253.34 Q 103.979 254.499 104.526 255.224 A 2.575 2.575 0 0 0 106.194 256.221 A 3.922 3.922 0 0 0 106.885 256.279 A 6.786 6.786 0 0 0 108.757 256.007 A 8.379 8.379 0 0 0 109.629 255.703 L 109.629 257.139 A 4.611 4.611 0 0 1 108.501 257.538 Q 107.98 257.653 107.373 257.684 A 8.89 8.89 0 0 1 106.924 257.695 A 6.059 6.059 0 0 1 105.45 257.526 A 4.108 4.108 0 0 1 103.325 256.265 Q 102.224 255.029 102.074 252.908 A 9.802 9.802 0 0 1 102.051 252.217 A 8.945 8.945 0 0 1 102.189 250.59 Q 102.357 249.683 102.729 248.968 A 4.469 4.469 0 0 1 103.345 248.066 A 4.198 4.198 0 0 1 105.643 246.745 A 6.363 6.363 0 0 1 107.031 246.601 A 7.316 7.316 0 0 1 108.574 246.767 Q 109.337 246.932 109.775 247.153 A 2.415 2.415 0 0 1 109.785 247.158 Z M 84.014 247.978 A 4.555 4.555 0 0 0 83.131 248.058 Q 82.142 248.254 81.621 248.931 A 2.775 2.775 0 0 0 81.219 249.696 Q 80.948 250.455 80.899 251.61 A 12.49 12.49 0 0 0 80.889 252.139 A 10.719 10.719 0 0 0 80.942 253.246 Q 81.058 254.364 81.431 255.044 A 2.445 2.445 0 0 0 81.641 255.366 A 2.352 2.352 0 0 0 82.834 256.171 Q 83.365 256.338 84.053 256.338 Q 85.547 256.338 86.279 255.249 A 3.721 3.721 0 0 0 86.74 254.253 Q 86.884 253.78 86.952 253.207 A 9.289 9.289 0 0 0 87.012 252.119 A 9.578 9.578 0 0 0 86.954 251.028 Q 86.816 249.834 86.354 249.113 A 2.689 2.689 0 0 0 86.279 249.004 Q 85.547 247.978 84.014 247.978 Z M 97.686 253.203 L 97.686 252.236 L 96.064 252.305 Q 94.45 252.362 93.588 252.742 A 2.49 2.49 0 0 0 93.276 252.905 A 1.73 1.73 0 0 0 92.452 254.16 A 2.56 2.56 0 0 0 92.422 254.56 A 2.317 2.317 0 0 0 92.479 255.092 Q 92.575 255.5 92.833 255.781 A 1.444 1.444 0 0 0 92.954 255.898 A 1.765 1.765 0 0 0 93.615 256.249 Q 93.979 256.357 94.443 256.357 Q 95.957 256.357 96.821 255.527 Q 97.681 254.702 97.686 253.219 A 5.163 5.163 0 0 0 97.686 253.203 Z" id="back_labelLayer" stroke="#777777" fill="#777777" style="stroke:#777777;fill:#777777" vector-effect="non-scaling-stroke"/><path d="M 206 200 L 206 233.5 L 203 233.5 L 203 266.5 L 206 266.5 L 206 300 L 253.5 300 L 253.5 297 L 286.5 297 L 286.5 300 L 319.5 300 L 319.5 297 L 352.5 297 L 352.5 300 L 385.5 300 L 400 300 L 400 266.5 L 403 266.5 L 403 233.5 L 400 233.5 L 400 200 L 352.5 200 L 352.5 203 L 319.5 203 L 319.5 200 L 286.5 200 L 286.5 203 L 253.5 203 L 253.5 200 L 220.5 200 L 206 200 Z" id="right_outsideCutPath" stroke="#FF0000" stroke-width="0.1" style="stroke:#FF0000;stroke-width:0.1" vector-effect="non-scaling-stroke"/><path d="M 315.437 255.195 L 313.815 255.195 L 313.815 248.271 Q 313.815 247.437 313.573 246.873 A 1.928 1.928 0 0 0 313.22 246.318 A 1.828 1.828 0 0 0 312.47 245.84 Q 312.176 245.736 311.814 245.697 A 4.298 4.298 0 0 0 311.354 245.674 A 4.906 4.906 0 0 0 310.437 245.754 Q 309.929 245.851 309.537 246.065 A 2.27 2.27 0 0 0 308.889 246.592 Q 308.112 247.51 308.112 249.6 L 308.112 255.195 L 306.491 255.195 L 306.491 240 L 308.112 240 L 308.112 244.6 A 14.583 14.583 0 0 1 308.102 245.16 Q 308.092 245.422 308.072 245.648 A 6.341 6.341 0 0 1 308.034 245.977 L 308.132 245.977 A 3.239 3.239 0 0 1 309.267 244.884 A 3.957 3.957 0 0 1 309.494 244.761 A 4.162 4.162 0 0 1 310.86 244.356 A 5.261 5.261 0 0 1 311.511 244.316 Q 312.802 244.316 313.668 244.72 A 2.922 2.922 0 0 1 314.455 245.249 A 2.823 2.823 0 0 1 315.151 246.342 Q 315.318 246.797 315.388 247.361 A 7.01 7.01 0 0 1 315.437 248.213 L 315.437 255.195 Z M 300.593 244.492 L 304.294 244.492 L 304.294 245.518 L 302.312 245.752 Q 302.585 246.094 302.8 246.645 A 3.119 3.119 0 0 1 302.984 247.39 A 4.005 4.005 0 0 1 303.015 247.891 A 3.716 3.716 0 0 1 302.844 249.043 A 3.006 3.006 0 0 1 301.94 250.4 Q 300.973 251.245 299.355 251.329 A 7.041 7.041 0 0 1 298.991 251.338 Q 298.513 251.338 298.093 251.26 Q 297.502 251.572 297.248 251.976 A 1.22 1.22 0 0 0 297.058 252.637 A 0.84 0.84 0 0 0 297.1 252.912 Q 297.178 253.137 297.397 253.273 A 0.9 0.9 0 0 0 297.419 253.286 A 1.137 1.137 0 0 0 297.671 253.39 Q 298.034 253.496 298.659 253.496 L 300.554 253.496 A 6.636 6.636 0 0 1 301.561 253.568 Q 302.088 253.649 302.514 253.822 A 2.93 2.93 0 0 1 303.225 254.228 A 2.372 2.372 0 0 1 304.106 255.739 A 3.562 3.562 0 0 1 304.157 256.357 A 3.51 3.51 0 0 1 303.957 257.572 Q 303.633 258.456 302.787 259.031 A 3.856 3.856 0 0 1 302.731 259.067 Q 301.306 260 298.571 260 A 9.083 9.083 0 0 1 297.353 259.924 Q 296.116 259.756 295.334 259.219 A 2.584 2.584 0 0 1 294.501 258.315 Q 294.234 257.82 294.201 257.193 A 3.423 3.423 0 0 1 294.196 257.012 Q 294.196 256.035 294.821 255.322 A 2.831 2.831 0 0 1 295.794 254.614 A 4.012 4.012 0 0 1 296.579 254.355 A 1.682 1.682 0 0 1 295.926 253.827 A 1.998 1.998 0 0 1 295.891 253.779 A 1.503 1.503 0 0 1 295.615 252.967 A 1.862 1.862 0 0 1 295.612 252.871 A 1.854 1.854 0 0 1 295.706 252.274 A 1.643 1.643 0 0 1 295.925 251.846 A 2.32 2.32 0 0 1 296.231 251.5 Q 296.506 251.243 296.911 250.996 A 2.842 2.842 0 0 1 295.677 250.008 A 3.522 3.522 0 0 1 295.559 249.834 Q 295.036 249.014 295.036 247.959 A 4.684 4.684 0 0 1 295.159 246.851 A 3.081 3.081 0 0 1 296.091 245.249 A 3.443 3.443 0 0 1 297.412 244.52 Q 297.937 244.36 298.569 244.314 A 7.16 7.16 0 0 1 299.079 244.297 A 6.214 6.214 0 0 1 299.901 244.349 A 4.733 4.733 0 0 1 300.593 244.492 Z M 323.688 253.857 L 323.688 255.098 A 1.595 1.595 0 0 1 323.499 255.173 Q 323.298 255.24 323.009 255.291 A 6.063 6.063 0 0 1 322.912 255.308 Q 322.433 255.385 322.044 255.39 A 4.156 4.156 0 0 1 321.989 255.391 A 4.234 4.234 0 0 1 320.741 255.223 Q 319.37 254.799 319.011 253.309 A 5.096 5.096 0 0 1 318.884 252.119 L 318.884 245.752 L 317.351 245.752 L 317.351 244.971 L 318.884 244.297 L 319.567 242.012 L 320.505 242.012 L 320.505 244.492 L 323.61 244.492 L 323.61 245.752 L 320.505 245.752 L 320.505 252.051 A 3.264 3.264 0 0 0 320.552 252.624 Q 320.608 252.939 320.731 253.188 A 1.572 1.572 0 0 0 320.964 253.535 A 1.506 1.506 0 0 0 321.89 254.028 A 2.167 2.167 0 0 0 322.224 254.053 A 5.324 5.324 0 0 0 323.004 253.997 A 4.914 4.914 0 0 0 323.054 253.989 A 8.77 8.77 0 0 0 323.288 253.949 Q 323.511 253.907 323.667 253.864 A 2.43 2.43 0 0 0 323.688 253.857 Z M 288.474 244.414 L 288.249 245.918 A 7.145 7.145 0 0 0 287.735 245.823 Q 287.479 245.786 287.251 245.776 A 3.802 3.802 0 0 0 287.077 245.771 A 2.809 2.809 0 0 0 285.002 246.668 A 3.843 3.843 0 0 0 284.855 246.826 A 3.702 3.702 0 0 0 283.962 248.905 A 4.921 4.921 0 0 0 283.933 249.453 L 283.933 255.195 L 282.312 255.195 L 282.312 244.492 L 283.649 244.492 L 283.835 246.475 L 283.913 246.475 A 5.474 5.474 0 0 1 284.525 245.6 A 4.182 4.182 0 0 1 285.349 244.863 Q 286.188 244.297 287.194 244.297 A 7.442 7.442 0 0 1 287.861 244.325 A 5.432 5.432 0 0 1 288.474 244.414 Z M 292.097 244.492 L 292.097 255.195 L 290.476 255.195 L 290.476 244.492 L 292.097 244.492 Z M 300.036 254.951 L 298.093 254.951 Q 296.989 254.951 296.374 255.478 A 1.708 1.708 0 0 0 295.813 256.447 A 2.594 2.594 0 0 0 295.759 256.992 A 1.628 1.628 0 0 0 295.866 257.596 Q 296.02 257.985 296.396 258.248 A 1.902 1.902 0 0 0 296.491 258.31 A 2.596 2.596 0 0 0 297.13 258.584 Q 297.732 258.758 298.577 258.76 A 8.225 8.225 0 0 0 298.591 258.76 Q 300.414 258.76 301.392 258.273 A 2.692 2.692 0 0 0 301.613 258.149 A 2.365 2.365 0 0 0 302.162 257.69 A 1.772 1.772 0 0 0 302.595 256.494 A 2.193 2.193 0 0 0 302.555 256.059 Q 302.448 255.533 302.058 255.288 A 1.538 1.538 0 0 0 301.693 255.129 Q 301.304 255.009 300.69 254.97 A 10.315 10.315 0 0 0 300.036 254.951 Z M 296.999 249.303 A 1.734 1.734 0 0 0 297.272 249.619 A 2.095 2.095 0 0 0 298.116 250.077 Q 298.437 250.169 298.82 250.19 A 4.174 4.174 0 0 0 299.04 250.195 A 3.532 3.532 0 0 0 299.965 250.085 Q 301.023 249.797 301.308 248.759 A 3.283 3.283 0 0 0 301.413 247.891 A 3.486 3.486 0 0 0 301.294 246.936 Q 300.878 245.478 299.011 245.478 Q 298.135 245.478 297.569 245.84 A 1.866 1.866 0 0 0 297.253 246.094 Q 296.638 246.709 296.638 247.92 Q 296.638 248.767 296.999 249.303 Z M 290.362 241.295 A 1.796 1.796 0 0 0 290.339 241.592 Q 290.339 242.139 290.612 242.407 A 0.91 0.91 0 0 0 290.941 242.617 A 1.03 1.03 0 0 0 291.296 242.676 A 0.946 0.946 0 0 0 291.97 242.407 A 0.791 0.791 0 0 0 292.124 242.203 Q 292.253 241.96 292.253 241.592 A 1.854 1.854 0 0 0 292.245 241.416 Q 292.23 241.256 292.185 241.125 A 0.819 0.819 0 0 0 291.97 240.781 A 0.955 0.955 0 0 0 291.296 240.518 A 1.238 1.238 0 0 0 291.214 240.52 A 0.937 0.937 0 0 0 290.612 240.776 Q 290.418 240.96 290.362 241.295 Z" id="right_labelLayer" stroke="#777777" fill="#777777" style="stroke:#777777;fill:#777777" vector-effect="non-scaling-stroke"/><path d="M 409 3 L 409 50.5 L 406 50.5 L 406 83.5 L 409 83.5 L 409 116.5 L 406 116.5 L 406 149.5 L 409 149.5 L 409 182.5 L 409 197 L 456.5 197 L 456.5 200 L 489.5 200 L 489.5 197 L 522.5 197 L 522.5 200 L 555.5 200 L 555.5 197 L 588.5 197 L 603 197 L 603 149.5 L 606 149.5 L 606 116.5 L 603 116.5 L 603 83.5 L 606 83.5 L 606 50.5 L 603 50.5 L 603 17.5 L 603 3 L 555.5 3 L 555.5 0 L 522.5 0 L 522.5 3 L 489.5 3 L 489.5 0 L 456.5 0 L 456.5 3 L 423.5 3 L 409 3 Z" id="bottom_outsideCutPath" stroke="#FF0000" stroke-width="0.1" style="stroke:#FF0000;stroke-width:0.1" vector-effect="non-scaling-stroke"/><path d="M 571.801 114.999 L 568.558 114.999 L 568.558 101.074 Q 568.558 99.471 568.129 98.37 A 3.918 3.918 0 0 0 567.465 97.236 A 3.412 3.412 0 0 0 565.879 96.21 Q 565.093 95.957 564.066 95.957 A 8.343 8.343 0 0 0 562.368 96.118 Q 561.359 96.328 560.598 96.811 A 4.293 4.293 0 0 0 559.594 97.695 A 5.358 5.358 0 0 0 558.685 99.339 Q 558.152 100.833 558.148 103.013 A 17.968 17.968 0 0 0 558.148 103.046 L 558.148 114.999 L 554.906 114.999 L 554.906 101.074 Q 554.906 99.471 554.477 98.37 A 3.918 3.918 0 0 0 553.812 97.236 Q 552.719 95.957 550.394 95.957 A 8.053 8.053 0 0 0 548.729 96.117 Q 546.927 96.499 545.932 97.783 A 5.437 5.437 0 0 0 545.125 99.314 Q 544.603 100.793 544.528 103.01 A 22.573 22.573 0 0 0 544.516 103.769 L 544.516 114.999 L 541.273 114.999 L 541.273 93.593 L 543.91 93.593 L 544.437 96.523 L 544.594 96.523 Q 545.512 94.96 547.182 94.082 A 7.697 7.697 0 0 1 550.222 93.229 A 9.297 9.297 0 0 1 550.922 93.203 A 10.615 10.615 0 0 1 553.311 93.451 Q 554.781 93.791 555.806 94.596 A 5.535 5.535 0 0 1 557.484 96.835 L 557.641 96.835 Q 558.598 95.156 560.414 94.179 A 8.206 8.206 0 0 1 563.424 93.264 A 10.232 10.232 0 0 1 564.555 93.203 A 11.27 11.27 0 0 1 566.599 93.376 Q 567.735 93.586 568.622 94.05 A 5.343 5.343 0 0 1 569.994 95.068 A 5.583 5.583 0 0 1 571.193 97.029 Q 571.516 97.893 571.667 98.969 A 14.871 14.871 0 0 1 571.801 101.035 L 571.801 114.999 Z M 443.441 112.246 L 443.207 112.246 L 442.523 114.999 L 440.199 114.999 L 440.199 84.609 L 443.441 84.609 L 443.441 91.992 Q 443.441 94.392 443.295 96.317 A 40.448 40.448 0 0 1 443.285 96.445 L 443.441 96.445 A 7.371 7.371 0 0 1 448.822 93.32 A 11.073 11.073 0 0 1 450.16 93.242 A 9.909 9.909 0 0 1 452.949 93.614 A 7.418 7.418 0 0 1 456.713 96.123 Q 458.582 98.429 458.954 102.271 A 20.811 20.811 0 0 1 459.047 104.277 A 19.01 19.01 0 0 1 458.795 107.475 Q 458.277 110.506 456.693 112.47 A 7.675 7.675 0 0 1 451.238 115.339 A 10.996 10.996 0 0 1 450.16 115.39 Q 448.07 115.39 446.342 114.619 A 7.181 7.181 0 0 1 443.441 112.246 Z M 498.715 112.324 L 498.715 114.804 A 3.189 3.189 0 0 1 498.337 114.954 Q 497.867 115.11 497.162 115.224 Q 496.205 115.379 495.426 115.389 A 8.312 8.312 0 0 1 495.316 115.39 A 8.468 8.468 0 0 1 492.821 115.054 Q 490.078 114.208 489.36 111.228 A 10.191 10.191 0 0 1 489.105 108.847 L 489.105 96.113 L 486.039 96.113 L 486.039 94.55 L 489.105 93.203 L 490.473 88.632 L 492.348 88.632 L 492.348 93.593 L 498.558 93.593 L 498.558 96.113 L 492.348 96.113 L 492.348 108.71 A 6.529 6.529 0 0 0 492.442 109.857 Q 492.554 110.486 492.801 110.984 A 3.145 3.145 0 0 0 493.266 111.679 Q 494.183 112.714 495.785 112.714 A 10.648 10.648 0 0 0 497.345 112.603 A 9.812 9.812 0 0 0 497.445 112.587 Q 498.209 112.466 498.671 112.336 A 4.868 4.868 0 0 0 498.715 112.324 Z M 512.836 112.324 L 512.836 114.804 A 3.189 3.189 0 0 1 512.458 114.954 Q 511.988 115.11 511.283 115.224 Q 510.326 115.379 509.547 115.389 A 8.312 8.312 0 0 1 509.437 115.39 A 8.468 8.468 0 0 1 506.942 115.054 Q 504.199 114.208 503.481 111.228 A 10.191 10.191 0 0 1 503.226 108.847 L 503.226 96.113 L 500.16 96.113 L 500.16 94.55 L 503.226 93.203 L 504.594 88.632 L 506.469 88.632 L 506.469 93.593 L 512.68 93.593 L 512.68 96.113 L 506.469 96.113 L 506.469 108.71 A 6.529 6.529 0 0 0 506.563 109.857 Q 506.675 110.486 506.922 110.984 A 3.145 3.145 0 0 0 507.387 111.679 Q 508.305 112.714 509.906 112.714 A 10.648 10.648 0 0 0 511.466 112.603 A 9.812 9.812 0 0 0 511.566 112.587 Q 512.331 112.466 512.792 112.336 A 4.868 4.868 0 0 0 512.836 112.324 Z M 482.89 107.535 A 16.747 16.747 0 0 0 483.187 104.277 A 19.028 19.028 0 0 0 483.181 103.762 Q 483.132 101.98 482.746 100.467 A 10.096 10.096 0 0 0 480.541 96.191 Q 477.894 93.203 473.402 93.203 Q 468.754 93.203 466.137 96.123 Q 464.399 98.062 463.815 101.021 A 16.834 16.834 0 0 0 463.519 104.277 A 16.219 16.219 0 0 0 463.723 106.904 A 11.994 11.994 0 0 0 464.73 110.175 A 10.656 10.656 0 0 0 464.966 110.637 A 8.777 8.777 0 0 0 468.168 114.042 A 9.028 9.028 0 0 0 470.24 114.964 A 10.412 10.412 0 0 0 473.266 115.39 A 12.59 12.59 0 0 0 475.464 115.206 A 8.644 8.644 0 0 0 480.551 112.451 A 9.044 9.044 0 0 0 481.628 110.971 Q 482.506 109.468 482.89 107.535 Z M 535.292 107.535 A 16.747 16.747 0 0 0 535.59 104.277 A 19.028 19.028 0 0 0 535.583 103.762 Q 535.535 101.98 535.149 100.467 A 10.096 10.096 0 0 0 532.943 96.191 Q 530.297 93.203 525.805 93.203 Q 521.156 93.203 518.539 96.123 Q 516.801 98.062 516.217 101.021 A 16.834 16.834 0 0 0 515.922 104.277 A 16.219 16.219 0 0 0 516.125 106.904 A 11.994 11.994 0 0 0 517.133 110.175 A 10.656 10.656 0 0 0 517.369 110.637 A 8.777 8.777 0 0 0 520.57 114.042 A 9.028 9.028 0 0 0 522.642 114.964 A 10.412 10.412 0 0 0 525.668 115.39 A 12.59 12.59 0 0 0 527.866 115.206 A 8.644 8.644 0 0 0 532.953 112.451 A 9.044 9.044 0 0 0 534.03 110.971 Q 534.908 109.468 535.292 107.535 Z M 466.879 104.277 A 16.418 16.418 0 0 0 467.035 106.622 Q 467.207 107.813 467.57 108.777 A 6.802 6.802 0 0 0 468.519 110.527 A 5.314 5.314 0 0 0 471.98 112.565 A 8.052 8.052 0 0 0 473.344 112.675 A 7.531 7.531 0 0 0 475.33 112.428 A 5.241 5.241 0 0 0 478.178 110.537 A 6.96 6.96 0 0 0 479.261 108.426 Q 479.58 107.45 479.72 106.259 A 17.078 17.078 0 0 0 479.828 104.277 A 16.177 16.177 0 0 0 479.675 101.972 Q 479.325 99.549 478.178 98.076 Q 476.527 95.957 473.305 95.957 A 7.716 7.716 0 0 0 471.384 96.182 A 5.164 5.164 0 0 0 468.5 98.046 Q 466.879 100.136 466.879 104.277 Z M 519.281 104.277 A 16.418 16.418 0 0 0 519.437 106.622 Q 519.61 107.813 519.972 108.777 A 6.802 6.802 0 0 0 520.922 110.527 A 5.314 5.314 0 0 0 524.383 112.565 A 8.052 8.052 0 0 0 525.746 112.675 A 7.531 7.531 0 0 0 527.733 112.428 A 5.241 5.241 0 0 0 530.58 110.537 A 6.96 6.96 0 0 0 531.664 108.426 Q 531.982 107.45 532.122 106.259 A 17.078 17.078 0 0 0 532.23 104.277 A 16.177 16.177 0 0 0 532.077 101.972 Q 531.728 99.549 530.58 98.076 Q 528.93 95.957 525.707 95.957 A 7.716 7.716 0 0 0 523.786 96.182 A 5.164 5.164 0 0 0 520.902 98.046 Q 519.281 100.136 519.281 104.277 Z M 449.691 95.957 A 9.111 9.111 0 0 0 447.927 96.116 Q 446.922 96.314 446.158 96.761 A 4.312 4.312 0 0 0 444.906 97.861 A 5.55 5.55 0 0 0 444.103 99.391 Q 443.441 101.246 443.441 104.277 Q 443.441 108.109 444.526 110.088 A 4.89 4.89 0 0 0 444.945 110.732 A 4.704 4.704 0 0 0 447.331 112.342 Q 448.395 112.675 449.769 112.675 A 6.463 6.463 0 0 0 451.605 112.43 A 4.663 4.663 0 0 0 454.223 110.498 Q 455.269 108.942 455.568 106.414 A 18.577 18.577 0 0 0 455.687 104.238 A 19.155 19.155 0 0 0 455.572 102.055 Q 455.275 99.481 454.223 98.007 A 4.728 4.728 0 0 0 451.212 96.102 A 7.499 7.499 0 0 0 449.691 95.957 Z" id="bottom_labelLayer" stroke="#777777" fill="#777777" style="stroke:#777777;fill:#777777" vector-effect="non-scaling-stroke"/></g></svg>