<?xml version="1.0" encoding="UTF-8" standalone="no"?>
<!-- Created with Inkscape (http://www.inkscape.org/) -->

<svg
   xmlns:dc="http://purl.org/dc/elements/1.1/"
   xmlns:cc="http://creativecommons.org/ns#"
   xmlns:rdf="http://www.w3.org/1999/02/22-rdf-syntax-ns#"
   xmlns:svg="http://www.w3.org/2000/svg"
   xmlns="http://www.w3.org/2000/svg"
   xmlns:sodipodi="http://sodipodi.sourceforge.net/DTD/sodipodi-0.dtd"
   xmlns:inkscape="http://www.inkscape.org/namespaces/inkscape"
   width="900mm"
   height="450mm"
   viewBox="0 0 900 450"
   version="1.1"
   id="svg867"
   inkscape:version="0.92.4 (5da689c313, 2019-01-14)"
   sodipodi:docname="WholeRobot.svg">
  <defs
     id="defs861" />
  <sodipodi:namedview
     id="base"
     pagecolor="#ffffff"
     bordercolor="#666666"
     borderopacity="1.0"
     inkscape:pageopacity="0.0"
     inkscape:pageshadow="2"
     inkscape:zoom="0.23636978"
     inkscape:cx="883.82787"
     inkscape:cy="1127.3224"
     inkscape:document-units="mm"
     inkscape:current-layer="layer1"
     showgrid="false"
     inkscape:window-width="958"
     inkscape:window-height="1041"
     inkscape:window-x="952"
     inkscape:window-y="0"
     inkscape:window-maximized="0" />
  <metadata
     id="metadata864">
    <rdf:RDF>
      <cc:Work
         rdf:about="">
        <dc:format>image/svg+xml</dc:format>
        <dc:type
           rdf:resource="http://purl.org/dc/dcmitype/StillImage" />
        <dc:title></dc:title>
      </cc:Work>
    </rdf:RDF>
  </metadata>
  <g
     inkscape:label="Layer 1"
     inkscape:groupmode="layer"
     id="layer1"
     transform="translate(0,153)">
    <path
       inkscape:connector-curvature="0"
       d="m 8.0391319,94.479263 v 47.499997 h -3 v 33 h 3 v 33 h -3 v 33 h 3 v 33 14.5 H 55.539132 v 3 h 33 v -3 h 32.999998 v 3 h 33 v -3 h 33 14.5 v -47.5 h 3 v -33 h -3 v -33 h 3 v -33 h -3 v -33 -14.499997 h -47.5 v -3 h -33 v 3 H 88.539132 v -3 h -33 v 3 h -33 z"
       id="top_outsideCutPath"
       style="font-size:12px;vector-effect:non-scaling-stroke;fill:none;fill-rule:evenodd;stroke:#ff0000;stroke-width:0.11;stroke-linecap:round;stroke-miterlimit:4;stroke-dasharray:none" />
    <g
       id="g1536"
       transform="translate(1.2468518,-131.54287)">
      <circle
         r="11"
         cy="33.02055"
         cx="102.09914"
         id="path830"
         style="fill:none;fill-opacity:1;stroke:#f70000;stroke-width:0.11;stroke-linecap:round;stroke-miterlimit:4;stroke-dasharray:none;stroke-opacity:1" />
      <circle
         r="5"
         cy="88.134918"
         cx="40.659096"
         id="path857"
         style="fill:none;fill-opacity:1;stroke:#f70000;stroke-width:0.11;stroke-linecap:round;stroke-miterlimit:4;stroke-dasharray:none;stroke-opacity:1" />
      <circle
         r="5"
         cy="88.101837"
         cx="163.5755"
         id="path859"
         style="fill:none;fill-opacity:1;stroke:#f70000;stroke-width:0.11;stroke-linecap:round;stroke-miterlimit:4;stroke-dasharray:none;stroke-opacity:1" />
      <path
         style="font-size:12px;vector-effect:non-scaling-stroke;fill:none;fill-rule:evenodd;stroke:#ff0000;stroke-width:0.11;stroke-linecap:round;stroke-miterlimit:4;stroke-dasharray:none"
         id="back_outsideCutPath"
         d="M 2.1045854,0.04937113 V 33.549371 h 3 v 33 h -3 V 100.04937 H 52.604585 v -2.999999 h 33 v 2.999999 h 33.000005 v -2.999999 h 33 v 2.999999 h 33 17.5 V 66.549371 h -3 v -33 h 3 V 0.04937113 h -50.5 V 3.0493711 h -33 V 0.04937113 H 85.604585 V 3.0493711 h -33 V 0.04937113 h -33 z"
         inkscape:connector-curvature="0" />
    </g>
    <path
       inkscape:connector-curvature="0"
       d="m 6.7922658,-22.236103 v 33.5 h -3 v 33 h 3 V 77.763892 H 54.292266 v -3 h 33 v 3 h 33.000014 v -3 h 33 v 3 h 33 14.5 V 44.263897 h 3 v -33 h -3 v -33.5 h -47.5 v 3 h -33 v -3 H 87.292266 v 3 h -33 v -3 h -33 z"
       id="right_outsideCutPath"
       style="font-size:12px;vector-effect:non-scaling-stroke;fill:none;fill-rule:evenodd;stroke:#ff0000;stroke-width:0.11;stroke-linecap:round;stroke-miterlimit:4;stroke-dasharray:none" />
    <path
       inkscape:connector-curvature="0"
       d="m 428.7863,-123.21214 v 47.500007 h -3 v 33 h 3 v 32.9999998 h -3 V 23.287867 h 3 v 33 14.499997 h 47.5 v 3 h 33 v -3 h 33 v 3 h 33 v -3 h 33 14.5 V 23.287867 h 3 V -9.7121332 h -3 V -42.712133 h 3 v -33 h -3 v -32.999997 -14.50001 h -47.5 v -3 h -33 v 3 h -33 v -3 h -33 v 3 h -33 z"
       id="bottom_outsideCutPath"
       style="font-size:12px;vector-effect:non-scaling-stroke;fill:none;fill-rule:evenodd;stroke:#ff0000;stroke-width:0.11;stroke-linecap:round;stroke-miterlimit:4;stroke-dasharray:none" />
    <g
       id="g1540"
       transform="translate(1.2468518,-131.54287)">
      <path
         style="font-size:12px;vector-effect:non-scaling-stroke;fill:none;fill-rule:evenodd;stroke:#ff0000;stroke-width:0.11;stroke-linecap:round;stroke-miterlimit:4;stroke-dasharray:none"
         id="left_outsideCutPath"
         d="M 214.10458,-0.91808851 V 32.581911 h -3 v 33 h 3 v 33.5 h 47.5 v -3 h 33 v 3 h 33 v -3 h 33 v 3 h 33 14.5 v -33.5 h 3 v -33 h -3 V -0.91808851 h -47.5 V 2.0819115 h -33 v -3.00000001 h -33 V 2.0819115 h -33 v -3.00000001 h -33 z"
         inkscape:connector-curvature="0" />
      <circle
         r="11"
         cy="33.021"
         cx="310.76599"
         id="path830-3"
         style="fill:none;fill-opacity:1;stroke:#f70000;stroke-width:0.11;stroke-linecap:round;stroke-miterlimit:4;stroke-dasharray:none;stroke-opacity:1" />
    </g>
    <g
       id="g1576"
       transform="translate(0,167.07816)">
      <circle
         r="5"
         cy="-100.1924"
         cx="251.90811"
         id="path857-8"
         style="fill:none;fill-opacity:1;stroke:#f70000;stroke-width:0.11;stroke-linecap:round;stroke-miterlimit:4;stroke-dasharray:none;stroke-opacity:1" />
      <circle
         r="5"
         cy="-100.22548"
         cx="374.82452"
         id="path859-9"
         style="fill:none;fill-opacity:1;stroke:#f70000;stroke-width:0.11;stroke-linecap:round;stroke-miterlimit:4;stroke-dasharray:none;stroke-opacity:1" />
      <path
         style="font-size:12px;vector-effect:non-scaling-stroke;fill:none;fill-rule:evenodd;stroke:#ff0000;stroke-width:0.11;stroke-linecap:round;stroke-miterlimit:4;stroke-dasharray:none"
         id="back_outsideCutPath-1"
         d="m 213.3536,-188.27793 v 33.5 h 3 v 33 h -3 v 33.499995 h 50.5 v -3 h 33 v 3 h 33 v -3 h 33 v 3 h 33 17.5 v -33.499995 h -3 v -33 h 3 v -33.5 h -50.5 v 3 h -33 v -3 h -33 v 3 h -33 v -3 h -33 z"
         inkscape:connector-curvature="0" />
    </g>
    <rect
       style="fill:none;fill-opacity:1;stroke:#f70000;stroke-width:0.11;stroke-linecap:round;stroke-miterlimit:4;stroke-dasharray:none;stroke-opacity:1"
       id="rect1585"
       height="186.83322"
       x="219.3288"
       y="98.009979"
       width="0" />
    <g
       id="g1593"
       transform="translate(0,167.07816)">
      <rect
         y="-72.068169"
         x="216.3288"
         height="194"
         width="194"
         id="rect1578"
         style="fill:none;fill-opacity:1;stroke:#f70000;stroke-width:0.11;stroke-linecap:round;stroke-miterlimit:4;stroke-dasharray:none;stroke-opacity:1" />
      <rect
         y="-65.068176"
         x="223.3288"
         height="180"
         width="180"
         id="rect1587"
         style="fill:none;fill-opacity:1;stroke:#f70000;stroke-width:0.11368958;stroke-linecap:round;stroke-miterlimit:4;stroke-dasharray:none;stroke-opacity:1" />
    </g>
    <rect
       style="fill:none;fill-opacity:1;stroke:#f70000;stroke-width:0.11;stroke-linecap:round;stroke-miterlimit:4;stroke-dasharray:none;stroke-opacity:1"
       id="rect1578-4"
       width="194"
       height="194"
       x="425.43097"
       y="94.641014" />
    <rect
       style="fill:none;fill-opacity:1;stroke:#f70000;stroke-width:0.11368958;stroke-linecap:round;stroke-miterlimit:4;stroke-dasharray:none;stroke-opacity:1"
       id="rect1587-1"
       width="180"
       height="180"
       x="432.43097"
       y="101.64101" />
    <rect
       style="fill:none;fill-opacity:1;stroke:#f70000;stroke-width:0.11;stroke-linecap:round;stroke-miterlimit:4;stroke-dasharray:none;stroke-opacity:1"
       id="rect1578-4-7"
       width="194"
       height="194"
       x="638.16162"
       y="-123.7067" />
  </g>
</svg>
